<svg width="451" height="274" viewBox="0 0 451 274" fill="none" xmlns="http://www.w3.org/2000/svg">
<path d="M304.845 180.245C299.069 168.822 302.319 149.662 317.358 148.334C324.096 147.736 327.949 151.173 327.949 156.652C327.949 172.116 304.845 166.371 304.845 180.251V180.245ZM187.564 169.077C187.564 163.597 183.717 160.166 176.979 160.759C161.94 162.092 158.689 181.252 164.465 192.67C164.465 178.789 187.564 184.534 187.564 169.077ZM260.398 99.0719C266.297 98.5516 272.31 91.4402 272.31 81.0904V70.2539C272.31 57.9565 266.539 51.647 260.521 52.1841C254.385 52.7266 248.126 60.707 248.126 77.1443C248.126 93.5816 254.267 99.6144 260.398 99.0719ZM451 67.238V122.759C451 135.145 447.587 144.809 440.854 151.477C436.153 156.131 429.928 159.342 422.007 161.202C422.13 161.317 422.243 161.439 422.352 161.561C422.539 161.744 422.722 161.927 422.9 162.114C423.082 162.297 423.269 162.48 423.447 162.668C423.629 162.851 423.817 163.033 423.995 163.221C424.177 163.404 424.364 163.587 424.537 163.775C424.725 163.958 424.912 164.14 425.085 164.328C425.272 164.511 425.459 164.693 425.632 164.882C425.82 165.064 426.007 165.247 426.18 165.435C426.367 165.618 426.55 165.801 426.727 165.988C429.499 168.651 430.969 172.032 430.969 175.796C430.969 180.008 429.085 183.909 425.667 186.781C424.843 187.468 423.955 188.082 423.013 188.619C423.146 188.752 423.269 188.884 423.403 189.017C423.585 189.2 423.768 189.382 423.95 189.571C424.133 189.754 424.315 189.936 424.493 190.124C424.68 190.307 424.863 190.49 425.04 190.678C425.228 190.86 425.41 191.043 425.588 191.231C425.775 191.414 425.958 191.596 426.14 191.784C426.323 191.967 426.505 192.15 426.683 192.338C426.87 192.521 427.048 192.704 427.23 192.891C427.413 193.074 427.595 193.257 427.778 193.445C431.349 196.932 433.85 201.719 433.85 208.659C433.85 215.599 430.062 222.385 423.176 227.188C417.395 231.223 409.818 233.83 401.838 234.538C400.452 234.66 399.075 234.721 397.739 234.721C389.442 234.721 382.256 232.385 377.639 228.101C377.338 227.825 377.052 227.531 376.776 227.238C376.588 227.056 376.401 226.873 376.228 226.684C376.041 226.502 375.853 226.319 375.681 226.132C375.493 225.949 375.306 225.766 375.133 225.578C374.946 225.395 374.763 225.213 374.585 225.024C374.398 224.842 374.216 224.659 374.038 224.471C373.855 224.288 373.668 224.105 373.49 223.918C373.328 223.757 373.17 223.602 373.012 223.436C366.846 231.915 357.016 237.61 345.928 239.076C346.056 239.204 346.179 239.331 346.302 239.458C346.495 239.635 346.672 239.824 346.845 240.012C347.042 240.189 347.22 240.377 347.393 240.565C347.585 240.742 347.767 240.93 347.94 241.118C348.132 241.296 348.315 241.484 348.488 241.672C348.68 241.849 348.862 242.037 349.035 242.226C351.506 244.55 352.863 247.865 352.863 251.562C352.863 261.015 343.9 271.99 324.215 273.733C323.144 273.827 321.773 273.905 320.18 273.905C313.126 273.905 301.658 272.36 292.415 263.787C291.847 263.262 291.3 262.713 290.767 262.149C290.59 261.967 290.402 261.784 290.225 261.596C290.042 261.413 289.855 261.231 289.677 261.043C289.495 260.86 289.307 260.677 289.13 260.489C288.947 260.307 288.76 260.124 288.582 259.935C288.4 259.753 288.217 259.57 288.035 259.382C287.852 259.199 287.67 259.017 287.487 258.829C287.309 258.646 287.122 258.464 286.94 258.275C286.762 258.093 286.575 257.91 286.392 257.722C286.214 257.539 286.027 257.356 285.849 257.168C285.667 256.985 285.48 256.803 285.302 256.615C285.119 256.432 284.932 256.25 284.754 256.062C284.572 255.879 284.385 255.696 284.207 255.508C284.024 255.325 283.842 255.142 283.659 254.954C283.477 254.772 283.294 254.59 283.112 254.401C282.934 254.219 282.747 254.036 282.564 253.848C282.387 253.665 282.199 253.482 282.017 253.294C281.839 253.112 281.652 252.929 281.474 252.741C281.292 252.558 281.104 252.376 280.927 252.187C280.744 252.005 280.557 251.822 280.379 251.634C280.197 251.451 280.009 251.269 279.832 251.08C279.649 250.898 279.467 250.715 279.284 250.527C279.102 250.345 278.919 250.162 278.737 249.974C278.559 249.791 278.372 249.608 278.189 249.42C278.012 249.237 277.824 249.055 277.642 248.867C277.464 248.684 277.277 248.501 277.099 248.313C276.917 248.131 276.729 247.948 276.552 247.76C276.369 247.577 276.182 247.395 276.004 247.206C275.822 247.024 275.634 246.841 275.457 246.653C275.274 246.47 275.092 246.288 274.909 246.1C274.727 245.917 274.544 245.734 274.362 245.546C274.184 245.363 273.997 245.181 273.814 244.992C273.637 244.81 273.449 244.627 273.267 244.44C273.089 244.257 272.902 244.074 272.724 243.886C272.542 243.703 272.354 243.52 272.176 243.332C271.994 243.15 271.807 242.967 271.629 242.779C271.447 242.596 271.259 242.413 271.081 242.226C271.027 242.17 270.968 242.115 270.914 242.059C267.012 245.385 259.993 246.36 252.866 246.991C242.073 247.943 236.657 247.195 233.56 244.318C233.387 244.157 233.229 243.991 233.076 243.825C233.057 243.803 233.032 243.786 233.012 243.764C232.84 243.604 232.682 243.437 232.529 243.272C232.509 243.249 232.485 243.233 232.465 243.21C232.297 243.05 232.134 242.884 231.981 242.718C231.962 242.696 231.942 242.679 231.917 242.657C231.75 242.496 231.592 242.331 231.439 242.164C231.414 242.142 231.394 242.126 231.37 242.104C231.202 241.943 231.044 241.777 230.891 241.611C230.867 241.589 230.847 241.572 230.822 241.55C230.655 241.39 230.497 241.223 230.344 241.058C230.319 241.035 230.299 241.019 230.28 240.996C230.107 240.836 229.949 240.67 229.796 240.504C229.777 240.482 229.752 240.465 229.732 240.443C229.56 240.283 229.402 240.117 229.249 239.95C229.234 239.934 229.214 239.923 229.199 239.907C222.703 246.553 213.647 250.826 203.703 251.706C202.48 251.816 201.257 251.866 200.058 251.866C190.918 251.866 182.449 248.79 176.407 243.188C175.943 242.762 175.504 242.314 175.075 241.86C174.888 241.678 174.705 241.495 174.527 241.307C174.34 241.124 174.162 240.941 173.98 240.753C173.793 240.57 173.615 240.388 173.432 240.2C173.245 240.017 173.067 239.835 172.885 239.647C172.702 239.464 172.52 239.281 172.337 239.093C172.155 238.91 171.972 238.727 171.795 238.539C171.607 238.357 171.425 238.174 171.247 237.986C171.154 237.892 171.06 237.804 170.966 237.715C170.877 237.88 170.789 238.047 170.68 238.213C164.44 248.662 152.972 255.591 139.99 256.737C138.767 256.847 137.548 256.897 136.345 256.897C127.205 256.897 118.741 253.82 112.693 248.219C112.23 247.793 111.791 247.344 111.362 246.891C111.174 246.708 110.997 246.525 110.814 246.337C110.627 246.155 110.449 245.972 110.267 245.784C110.079 245.602 109.902 245.419 109.719 245.231C109.532 245.048 109.354 244.865 109.172 244.677C108.989 244.495 108.807 244.312 108.624 244.123C108.442 243.941 108.259 243.758 108.082 243.57C107.894 243.388 107.712 243.205 107.534 243.017C107.347 242.834 107.164 242.652 106.987 242.463C106.799 242.281 106.621 242.098 106.439 241.91C106.252 241.727 106.074 241.544 105.891 241.357C105.704 241.174 105.526 240.991 105.344 240.803C105.28 240.742 105.216 240.676 105.152 240.615C99.6666 254.224 82.6642 262.542 65.8246 264.037C63.9996 264.197 62.2042 264.28 60.4482 264.28C49.7644 264.28 40.5701 261.319 34.7103 255.884C34.3552 255.552 34.0148 255.209 33.6794 254.86C33.492 254.678 33.3144 254.495 33.1319 254.307C32.9494 254.124 32.7669 253.942 32.5844 253.754C32.4019 253.571 32.2194 253.388 32.0368 253.2C31.8543 253.018 31.6718 252.835 31.4943 252.647C31.3068 252.464 31.1244 252.281 30.9468 252.093C30.7594 251.91 30.5768 251.728 30.3992 251.54C30.2118 251.357 30.0343 251.175 29.8518 250.986C29.6643 250.804 29.4867 250.621 29.3042 250.433C29.1168 250.25 28.9393 250.067 28.7568 249.879C28.5743 249.697 28.3917 249.515 28.2092 249.326C28.0267 249.143 27.8442 248.961 27.6666 248.773C27.4792 248.59 27.2967 248.407 27.1192 248.219C26.9317 248.036 26.7492 247.854 26.5716 247.666C26.3842 247.483 26.2017 247.301 26.0241 247.112C25.8367 246.93 25.6591 246.747 25.4766 246.559C25.2892 246.376 25.1116 246.193 24.9291 246.005C24.7417 245.823 24.5641 245.64 24.3816 245.452C24.1991 245.27 24.0166 245.087 23.8341 244.899C23.6516 244.716 23.4691 244.533 23.2915 244.345C23.1041 244.162 22.9215 243.98 22.744 243.791C22.5565 243.609 22.3741 243.426 22.1965 243.238C22.0091 243.056 21.8265 242.873 21.649 242.685C21.4615 242.502 21.284 242.32 21.1015 242.131C20.914 241.948 20.7364 241.766 20.5539 241.578C20.3665 241.395 20.189 241.213 20.0065 241.024C19.824 240.842 19.6414 240.659 19.4589 240.471C19.2764 240.288 19.0939 240.106 18.9163 239.917C18.7289 239.735 18.5464 239.552 18.3689 239.364C18.1814 239.182 17.9989 238.999 17.8213 238.811C17.6339 238.628 17.4514 238.445 17.2738 238.257C17.0864 238.075 16.9088 237.892 16.7263 237.704C16.5389 237.521 16.3613 237.338 16.1788 237.151C15.9914 236.968 15.8138 236.785 15.6313 236.597C15.4488 236.414 15.2663 236.232 15.0838 236.043C14.9013 235.861 14.7188 235.678 14.5412 235.49C14.3538 235.307 14.1712 235.125 13.9937 234.937C13.8062 234.754 13.6238 234.571 13.4462 234.383C13.2588 234.2 13.0762 234.018 12.8987 233.83C12.7112 233.647 12.5337 233.464 12.3512 233.276C12.1637 233.093 11.9861 232.911 11.8036 232.723C11.6162 232.54 11.4387 232.358 11.2562 232.169C11.0737 231.987 10.8911 231.804 10.7086 231.616C10.5261 231.433 10.3437 231.25 10.1661 231.063C9.97867 230.88 9.79613 230.697 9.61856 230.509C9.43113 230.326 9.24866 230.144 9.07109 229.956C8.88365 229.773 8.70111 229.59 8.52354 229.402C8.33611 229.219 8.15857 229.037 7.97607 228.849C7.78863 228.666 7.61103 228.483 7.42852 228.295C7.24109 228.113 7.06355 227.93 6.88105 227.742C2.59469 223.53 0.330651 218.007 0.330651 211.708C0.330651 203.091 9.77148 194.84 17.8164 193.716C17.7819 193.683 17.7523 193.655 17.7227 193.622C17.5353 193.439 17.3577 193.257 17.1752 193.069C16.9877 192.886 16.8102 192.704 16.6277 192.515C16.4403 192.333 16.2627 192.15 16.0801 191.962C15.8927 191.779 15.7152 191.596 15.5327 191.408C15.3502 191.225 15.1676 191.043 14.9851 190.855C14.8026 190.672 14.6201 190.49 14.4425 190.302C14.2551 190.119 14.0726 189.936 13.8951 189.748C13.7076 189.565 13.5251 189.382 13.3475 189.194C13.1601 189.012 12.9826 188.829 12.8001 188.641C8.40025 184.319 5.38156 178.513 5.38156 170.35C5.38156 162.186 8.69126 154.56 14.9457 149.214C18.0778 146.535 21.935 144.426 26.2214 142.976C26.1474 142.904 26.0882 142.832 26.0192 142.76C25.8317 142.578 25.6493 142.395 25.4717 142.207C25.2843 142.025 25.1067 141.842 24.9242 141.654C24.7367 141.471 24.5592 141.288 24.3767 141.1C24.1892 140.918 24.0116 140.735 23.8291 140.547C23.6466 140.364 23.4642 140.181 23.2817 139.994C23.0992 139.811 22.9166 139.628 22.7391 139.44C22.5516 139.257 22.3691 139.075 22.1915 138.886C22.0041 138.704 21.8216 138.521 21.6441 138.333C21.4566 138.15 21.2741 137.968 21.0965 137.78C20.9091 137.597 20.7315 137.415 20.549 137.226C20.3616 137.043 20.184 136.861 20.0015 136.673C19.8141 136.49 19.6365 136.307 19.454 136.119C19.2715 135.937 19.089 135.754 18.9065 135.566C18.724 135.383 18.5415 135.201 18.3639 135.013C18.1765 134.83 17.994 134.647 17.8164 134.459C17.629 134.276 17.4464 134.093 17.2689 133.905C17.0814 133.723 16.899 133.54 16.7214 133.352C16.534 133.17 16.3564 132.987 16.1739 132.799C15.9864 132.616 15.8089 132.433 15.6264 132.245C15.4389 132.062 15.2613 131.88 15.0788 131.692C14.8963 131.509 14.7139 131.327 14.5314 131.138C14.3489 130.956 14.1664 130.773 13.9888 130.585C13.8013 130.402 13.6188 130.22 13.4412 130.031C13.2538 129.848 13.0713 129.666 12.8938 129.478C12.7063 129.296 12.5238 129.113 12.3462 128.924C12.1588 128.742 11.9812 128.559 11.7987 128.371C11.6113 128.188 11.4337 128.006 11.2512 127.818C11.0638 127.635 10.8862 127.452 10.7037 127.264C10.5212 127.082 10.3387 126.899 10.1562 126.711C9.97367 126.528 9.79124 126.345 9.61367 126.157C9.42623 125.975 9.24369 125.792 9.06612 125.604C8.87869 125.421 8.69622 125.239 8.51865 125.051C8.33121 124.868 8.14867 124.685 7.9711 124.497C7.78367 124.314 7.60613 124.132 7.42363 123.943C7.23619 123.761 7.05859 123.578 6.87608 123.39C2.58972 119.178 0.325684 113.655 0.325684 107.357C0.325684 98.74 9.76651 90.4878 17.8115 89.3643C17.7769 89.3313 17.7473 89.3036 17.7177 89.2701C17.5303 89.0876 17.3478 88.9051 17.1703 88.7167C16.9828 88.5343 16.8052 88.3518 16.6227 88.1634C16.4353 87.9809 16.2578 87.7984 16.0753 87.61C15.8878 87.4275 15.7102 87.2445 15.5277 87.0566C15.3403 86.8741 15.1627 86.6912 14.9802 86.5033C14.7977 86.3203 14.6152 86.1378 14.4327 85.9499C14.2502 85.7669 14.0677 85.5844 13.8901 85.396C13.7027 85.2135 13.5202 85.0311 13.3426 84.8427C13.1552 84.6602 12.9727 84.4772 12.7951 84.2893C8.39528 79.9669 5.37659 74.1615 5.37659 65.9981C5.37659 57.8347 8.68633 50.2083 14.9358 44.862C20.332 40.2518 27.8393 37.3131 36.0717 36.5825C37.2752 36.4774 38.3998 36.4275 39.4603 36.4221C39.4357 36.3945 39.411 36.3669 39.3912 36.339C39.2038 36.162 39.0164 35.9793 38.8437 35.7857C38.6563 35.6086 38.4688 35.4203 38.2962 35.2323C38.1088 35.0497 37.9263 34.867 37.7487 34.6787C37.5613 34.5017 37.3788 34.319 37.2012 34.1254C37.0137 33.9427 36.8313 33.76 36.6537 33.5717C36.4712 33.3947 36.2837 33.212 36.1062 33.0184C35.4847 32.4208 34.9174 31.7677 34.4193 31.048C31.7409 27.174 31.3661 22.1875 33.4328 17.7101C36.0076 12.1204 41.6552 8.54515 48.9159 7.89763C53.3798 7.50465 56.9658 8.34037 60.4334 9.14843C63.8171 9.93429 67.0133 10.6814 71.1764 10.3106C74.3135 10.0339 77.1004 8.29608 80.3262 6.28709C84.0207 3.98475 88.2133 1.37254 93.5552 0.902102C97.3681 0.570036 100.446 1.46108 102.715 3.56972C102.902 3.7413 103.075 3.92393 103.243 4.10657C103.253 4.11209 103.257 4.11761 103.262 4.12314C103.445 4.29472 103.622 4.47735 103.79 4.65998C103.795 4.66551 103.805 4.67103 103.81 4.6766C103.992 4.84814 104.17 5.03077 104.338 5.2134C104.343 5.21897 104.348 5.2245 104.357 5.23002C104.54 5.4016 104.717 5.58424 104.885 5.76687C104.89 5.77239 104.895 5.77791 104.9 5.78344C105.087 5.95502 105.265 6.13765 105.433 6.32028C105.438 6.32581 105.443 6.33138 105.448 6.3369C105.635 6.50849 105.808 6.69112 105.98 6.87375C105.985 6.87927 105.99 6.88485 105.995 6.89037C106.182 7.06191 106.355 7.24459 106.528 7.42722C106.533 7.43274 106.538 7.43827 106.543 7.44379C106.73 7.61537 106.903 7.798 107.075 7.98064C107.08 7.98616 107.085 7.99168 107.09 7.99726C107.278 8.16879 107.45 8.35142 107.618 8.53405C107.628 8.53963 107.633 8.54515 107.638 8.55067C107.82 8.72226 107.998 8.90489 108.165 9.08752C108.17 9.09309 108.18 9.09862 108.185 9.10414C108.368 9.27572 108.545 9.45835 108.713 9.64099C108.718 9.64651 108.723 9.65203 108.733 9.65756C108.915 9.82914 109.093 10.0118 109.26 10.1944C109.265 10.1999 109.27 10.2055 109.275 10.211C109.463 10.3826 109.64 10.5652 109.808 10.7479C109.813 10.7534 109.818 10.7589 109.823 10.7645C110.01 10.936 110.183 11.1187 110.355 11.3013C110.36 11.3069 110.365 11.3124 110.37 11.3179C110.558 11.4895 110.73 11.6721 110.903 11.8548C110.908 11.8603 110.913 11.8658 110.918 11.8713C111.105 12.0429 111.278 12.2255 111.45 12.4082C111.455 12.4137 111.46 12.4193 111.465 12.4248C111.653 12.5964 111.825 12.779 111.993 12.9616C112.003 12.9672 112.008 12.9727 112.013 12.9782C112.2 13.1498 112.373 13.3324 112.54 13.5151C112.545 13.5206 112.555 13.5261 112.56 13.5317C112.743 13.7032 112.92 13.8858 113.088 14.0685C113.093 14.074 113.098 14.0796 113.103 14.0851C113.29 14.2567 113.468 14.4393 113.635 14.6219C113.64 14.6275 113.645 14.633 113.65 14.6386C113.838 14.8101 114.015 14.9928 114.183 15.1754C114.188 15.1809 114.193 15.1865 114.198 15.192C114.385 15.3636 114.558 15.5462 114.731 15.7288C114.735 15.7343 114.74 15.7399 114.745 15.7454C114.933 15.917 115.105 16.0997 115.278 16.2823C115.283 16.2878 115.288 16.2934 115.293 16.2989C115.48 16.4704 115.653 16.6531 115.826 16.8358C115.83 16.8413 115.835 16.8468 115.84 16.8523C116.028 17.0239 116.2 17.2065 116.368 17.3892C116.378 17.3947 116.383 17.4002 116.388 17.4057C116.57 17.5773 116.748 17.76 116.916 17.9426C116.921 17.9482 116.93 17.9537 116.935 17.9592C117.118 18.1308 117.295 18.3134 117.463 18.4961C117.468 18.5016 117.473 18.5072 117.483 18.5127C117.665 18.6843 117.843 18.8669 118.011 19.0495C118.016 19.055 118.021 19.0606 118.025 19.0661C118.213 19.2377 118.39 19.4203 118.558 19.6029C118.563 19.6085 118.568 19.614 118.573 19.6196C118.76 19.7911 118.933 19.9737 119.106 20.1564C119.111 20.1619 119.116 20.1675 119.12 20.173C119.308 20.3446 119.481 20.5272 119.653 20.7098C119.658 20.7153 119.663 20.7209 119.668 20.7264C119.855 20.898 120.028 21.0806 120.201 21.2632C120.206 21.2688 120.211 21.2743 120.215 21.2799C120.403 21.4514 120.576 21.6341 120.743 21.8167C120.753 21.8222 120.758 21.8278 120.763 21.8333C120.946 22.0049 121.123 22.1875 121.291 22.3702C121.296 22.3757 121.306 22.3812 121.31 22.3867C121.493 22.5583 121.671 22.741 121.838 22.9236C121.843 22.9291 121.848 22.9346 121.858 22.9402C122.041 23.1117 122.218 23.2944 122.386 23.477C122.391 23.4826 122.396 23.4881 122.401 23.4936C122.588 23.6652 122.766 23.8478 122.933 24.0305C122.938 24.0361 122.943 24.0416 122.948 24.0471C123.136 24.2187 123.308 24.4013 123.481 24.5839C123.486 24.5895 123.491 24.595 123.496 24.6005C123.683 24.7721 123.856 24.9547 124.028 25.1374C124.033 25.1429 124.038 25.1485 124.043 25.154C124.231 25.3255 124.403 25.5082 124.576 25.6908C124.581 25.6964 124.586 25.7019 124.591 25.7074C124.778 25.879 124.951 26.0616 125.118 26.2443C125.128 26.2498 125.133 26.2553 125.138 26.2609C125.321 26.4325 125.498 26.6151 125.666 26.7977C125.671 26.8032 125.681 26.8088 125.686 26.8143C125.868 26.9859 126.046 27.1685 126.213 27.3511C126.218 27.3567 126.223 27.3622 126.233 27.3678C126.416 27.5393 126.593 27.722 126.761 27.9046C126.766 27.9101 126.771 27.9156 126.776 27.9212C126.963 28.0928 127.141 28.2754 127.308 28.458C127.313 28.4635 127.318 28.4691 127.323 28.4746C127.511 28.6462 127.683 28.8289 127.856 29.0115C127.861 29.017 127.866 29.0225 127.871 29.0281C128.058 29.1997 128.231 29.3824 128.403 29.565C128.408 29.5704 128.413 29.576 128.418 29.5814C128.606 29.7531 128.778 29.9357 128.951 30.1184C128.956 30.124 128.961 30.1294 128.966 30.135C129.153 30.3064 129.326 30.4891 129.494 30.6717C129.503 30.6774 129.508 30.683 129.513 30.6884C129.696 30.86 129.873 31.0427 130.041 31.2253C130.046 31.2307 130.056 31.2363 130.061 31.242C133.716 34.6344 134.14 40.2075 134.14 44.1094V51.3096C137.317 51.9626 140.02 53.3076 142.215 55.3494C142.515 55.6266 142.801 55.9201 143.083 56.2189C143.265 56.4014 143.453 56.5839 143.625 56.7718C143.813 56.9548 144 57.1373 144.173 57.3257C144.36 57.5082 144.548 57.6911 144.72 57.879C144.908 58.0615 145.095 58.2445 145.268 58.4324C145.455 58.6149 145.638 58.7979 145.815 58.9858C146.003 59.1688 146.185 59.3512 146.363 59.5391C146.55 59.7221 146.733 59.9046 146.91 60.093C147.093 60.2755 147.28 60.4585 147.458 60.6464C147.64 60.8289 147.828 61.0113 148 61.1997C148.188 61.3822 148.375 61.5647 148.548 61.7531C148.735 61.9361 148.923 62.1186 149.095 62.3065C149.283 62.489 149.47 62.6719 149.643 62.8603C149.83 63.0428 150.013 63.2253 150.19 63.4137C150.378 63.5962 150.56 63.7787 150.738 63.9666C150.925 64.1496 151.108 64.332 151.285 64.5204C151.468 64.7029 151.655 64.8859 151.833 65.0738C152.015 65.2563 152.203 65.4393 152.376 65.6272C152.563 65.8097 152.75 65.9926 152.923 66.1805C153.11 66.3635 153.298 66.546 153.471 66.7339C153.658 66.9169 153.845 67.0994 154.018 67.2878C154.205 67.4703 154.388 67.6527 154.566 67.8411C154.753 68.0236 154.935 68.2061 155.113 68.3945C155.3 68.577 155.483 68.7595 155.661 68.9479C155.843 69.1309 156.03 69.3133 156.208 69.5012C156.391 69.6837 156.578 69.8667 156.751 70.0551C156.938 70.2371 157.126 70.4201 157.298 70.6085C157.397 70.7076 157.5 70.8018 157.599 70.9019V38.6747C157.417 38.5086 157.234 38.326 157.066 38.1323C156.874 37.9663 156.691 37.778 156.519 37.5787C156.326 37.4127 156.144 37.2247 155.971 37.0254C155.779 36.8593 155.601 36.671 155.424 36.472C155.231 36.306 155.054 36.1177 154.876 35.9184C154.684 35.7524 154.506 35.5644 154.329 35.3651C154.136 35.199 153.959 35.0107 153.781 34.8114C153.594 34.6454 153.411 34.4574 153.239 34.2581C153.046 34.0921 152.864 33.9038 152.691 33.7048C152.499 33.5387 152.316 33.3504 152.144 33.1511C150.916 32.0721 149.899 30.3177 149.899 27.3899C149.899 21.0917 159.838 12.6019 172.175 11.5061C175.277 11.2349 179.776 11.2238 183.09 14.2954C183.302 14.4947 183.51 14.6939 183.692 14.9042C183.884 15.0869 184.072 15.2695 184.24 15.4577C184.432 15.6403 184.619 15.8229 184.787 16.0111C184.979 16.1937 185.162 16.3764 185.335 16.5645C185.527 16.7472 185.709 16.9298 185.882 17.118C186.07 17.3006 186.257 17.4832 186.43 17.6714C186.617 17.8541 186.804 18.0367 186.972 18.2248C187.165 18.4075 187.352 18.5902 187.52 18.7783C187.712 18.9609 187.899 19.1436 188.067 19.3317C188.26 19.5144 188.447 19.697 188.615 19.8852C188.807 20.0678 188.994 20.2505 189.162 20.4387C189.355 20.6213 189.537 20.8039 189.71 20.9921C189.902 21.1747 190.085 21.3573 190.257 21.5455C190.445 21.7282 190.632 21.9108 190.805 22.099C190.992 22.2816 191.18 22.4643 191.347 22.6524C191.54 22.8351 191.727 23.0177 191.895 23.2059C192.087 23.3885 192.275 23.5711 192.442 23.7593C192.635 23.9419 192.822 24.1246 192.99 24.3127C193.182 24.4954 193.37 24.678 193.537 24.8662C193.73 25.0488 193.912 25.2315 194.085 25.4196C194.277 25.6023 194.46 25.7849 194.632 25.9731C194.82 26.1557 195.007 26.3383 195.18 26.5265C195.367 26.7091 195.555 26.8918 195.722 27.08C195.915 27.2626 196.102 27.4452 196.27 27.6334C196.462 27.8161 196.65 27.9987 196.817 28.1869C197.01 28.3695 197.197 28.5521 197.365 28.7403C197.557 28.9229 197.745 29.1056 197.913 29.2936C198.105 29.4762 198.287 29.6589 198.46 29.8472C198.652 30.0299 198.835 30.2125 199.008 30.4005C199.195 30.5832 199.382 30.7659 199.555 30.9542C199.743 31.1368 199.93 31.3192 200.098 31.5075C200.29 31.6901 200.477 31.8728 200.645 32.0608C200.837 32.2435 201.025 32.4261 201.193 32.6144C201.385 32.7971 201.572 32.9798 201.74 33.1678C201.933 33.3504 202.12 33.5331 202.288 33.7214C202.48 33.9038 202.663 34.0864 202.835 34.2747C203.028 34.4574 203.21 34.6401 203.383 34.8281C203.57 35.0107 203.758 35.1934 203.93 35.3817C204.118 35.5644 204.305 35.747 204.473 35.935C204.665 36.1177 204.853 36.3004 205.02 36.4884C205.213 36.671 205.4 36.8537 205.568 37.042C205.76 37.2247 205.948 37.4073 206.115 37.5953C206.308 37.778 206.495 37.9607 206.663 38.149C206.855 38.3316 207.038 38.514 207.21 38.7023C207.403 38.8849 207.585 39.0676 207.758 39.2556C207.945 39.4383 208.133 39.6209 208.305 39.8092C208.493 39.9919 208.68 40.1746 208.848 40.3625C209.04 40.5452 209.228 40.7279 209.395 40.9162C209.588 41.0985 209.775 41.2812 209.943 41.4695C210.135 41.6522 210.323 41.8348 210.49 42.0228C210.939 42.4434 211.334 42.8972 211.684 43.3734C212.853 43.0799 214.042 42.8696 215.25 42.7591C219.882 42.3496 223.818 43.5061 226.625 46.1073C226.832 46.301 227.039 46.5112 227.251 46.7381C227.434 46.9098 227.616 47.0923 227.799 47.2916C227.981 47.4632 228.159 47.6457 228.346 47.8449C228.529 48.0166 228.706 48.1995 228.894 48.3983C229.076 48.5699 229.254 48.7529 229.441 48.9522C229.619 49.1233 229.801 49.3063 229.989 49.5055C230.166 49.6772 230.349 49.8596 230.536 50.0589C230.714 50.2305 230.896 50.413 231.084 50.6123C231.261 50.7839 231.444 50.9669 231.626 51.1656C231.789 51.3151 231.947 51.4759 232.105 51.6416C232.144 51.5977 232.174 51.5533 232.213 51.5089C238.142 44.7515 246.68 40.7056 256.896 39.7979C264.25 39.1504 269.197 40.4015 272.813 41.3144C274.796 41.8182 276.359 42.2165 277.587 42.106C279.477 41.94 281.987 40.656 283.196 40.0415C283.383 39.9477 283.546 39.8644 283.689 39.7926C285.8 38.6966 287.975 38.0215 289.983 37.8445C293.727 37.5068 295.892 38.9511 297.051 40.2188C297.076 40.2464 297.101 40.274 297.125 40.3017C297.298 40.4567 297.456 40.6171 297.599 40.7721C297.623 40.7997 297.648 40.8274 297.673 40.8553C297.845 41.01 298.003 41.1707 298.146 41.3254C298.171 41.3534 298.196 41.381 298.22 41.4086C298.393 41.5637 298.551 41.724 298.694 41.8791C298.713 41.9067 298.743 41.9343 298.763 41.962C298.94 42.117 299.098 42.2774 299.241 42.4324C299.261 42.46 299.291 42.488 299.31 42.5156C299.488 42.676 299.646 42.831 299.789 42.986C299.809 43.0137 299.838 43.0413 299.858 43.0689C300.035 43.224 300.193 43.3844 300.336 43.5394C300.356 43.567 300.386 43.5946 300.405 43.6222C300.578 43.7773 300.741 43.938 300.879 44.0927C300.903 44.1203 300.928 44.1483 300.953 44.1759C301.125 44.3309 301.288 44.4913 301.426 44.6463C301.451 44.674 301.476 44.7016 301.5 44.7292C301.658 44.8733 301.806 45.017 301.934 45.161C304.672 39.6598 312.875 33.8708 322.158 33.0517C325.275 32.7748 327.658 33.1678 329.483 33.9483C335.663 17.2065 347.368 5.7392 360.059 4.61569C364.568 4.21724 368.158 5.2245 370.738 7.61537C370.931 7.79248 371.118 7.99168 371.315 8.20203C371.493 8.36804 371.675 8.55625 371.863 8.75545C372.04 8.92151 372.223 9.10966 372.41 9.30892C372.593 9.47493 372.77 9.66308 372.958 9.86238C373.14 10.0284 373.318 10.2165 373.505 10.4158C373.683 10.5818 373.865 10.77 374.048 10.9692C374.23 11.1353 374.413 11.3234 374.595 11.5227C374.778 11.6887 374.96 11.8769 375.143 12.0761C375.325 12.2422 375.503 12.4303 375.69 12.6296C375.868 12.7956 376.05 12.9837 376.238 13.183C376.415 13.349 376.598 13.5372 376.785 13.7365C376.968 13.9025 377.145 14.0907 377.333 14.2899C377.515 14.4559 377.693 14.6441 377.88 14.8433C378.058 15.0093 378.24 15.1976 378.423 15.3968C378.605 15.5628 378.788 15.751 378.97 15.9502C379.153 16.1163 379.336 16.3044 379.518 16.5036C379.701 16.6697 379.878 16.8579 380.065 17.0571C380.243 17.2231 380.426 17.4113 380.613 17.6106C380.791 17.7766 380.973 17.9648 381.161 18.164C381.343 18.33 381.521 18.5182 381.708 18.7175C381.891 18.8835 382.068 19.0716 382.256 19.2709C382.433 19.4369 382.616 19.6251 382.798 19.8243C382.981 19.9903 383.163 20.1785 383.346 20.3778C383.528 20.5438 383.711 20.732 383.893 20.9312C384.076 21.0972 384.253 21.2854 384.441 21.4846C384.618 21.6507 384.801 21.8389 384.988 22.0381C385.166 22.2041 385.348 22.3923 385.536 22.5915C385.718 22.7575 385.896 22.9457 386.083 23.145C386.266 23.311 386.443 23.4992 386.631 23.6984C386.808 23.8645 386.991 24.0526 387.173 24.2519C387.356 24.4179 387.538 24.606 387.721 24.8053C387.903 24.9714 388.086 25.1595 388.268 25.3588C388.451 25.5248 388.628 25.713 388.816 25.9122C388.993 26.0782 389.176 26.2664 389.363 26.4656C389.541 26.6317 389.723 26.8199 389.911 27.0191C390.093 27.1851 390.271 27.3733 390.458 27.5725C390.641 27.7385 390.818 27.9267 391.006 28.1259C391.183 28.292 391.366 28.4802 391.548 28.6794C391.731 28.8454 391.913 29.0336 392.096 29.233C392.278 29.399 392.461 29.587 392.643 29.7863C392.826 29.9524 393.004 30.1404 393.191 30.3397C393.369 30.5057 393.551 30.694 393.738 30.8933C393.783 30.9375 393.832 30.9818 393.877 31.026C398.72 27.8825 404.595 26.117 407.87 25.8236C411.713 25.4861 416.541 25.5026 419.955 28.6628C420.162 28.8565 420.359 29.0557 420.547 29.2606C420.739 29.4377 420.922 29.626 421.094 29.814C421.287 29.991 421.469 30.1793 421.642 30.3673C421.829 30.5446 422.022 30.7326 422.189 30.9209C422.377 31.0979 422.564 31.2862 422.737 31.4742C422.929 31.6512 423.112 31.8396 423.279 32.0279C423.477 32.2049 423.659 32.3929 423.827 32.5812C424.019 32.7582 424.207 32.9465 424.374 33.1345C424.567 33.3118 424.749 33.4998 424.922 33.6881C425.114 33.8651 425.297 34.0535 425.469 34.2414C425.662 34.4185 425.844 34.6068 426.017 34.7951C426.204 34.9721 426.397 35.1601 426.564 35.3484C426.752 35.5254 426.939 35.7137 427.112 35.9018C427.304 36.0791 427.487 36.2671 427.654 36.4554C427.852 36.6324 428.034 36.8204 428.202 37.0087C428.394 37.1857 428.582 37.374 428.749 37.5621C428.942 37.7394 429.124 37.9274 429.297 38.1157C429.489 38.2927 429.672 38.481 429.845 38.669C430.037 38.846 430.219 39.0343 430.392 39.2227C430.579 39.3997 430.772 39.5877 430.94 39.776C431.127 39.953 431.314 40.1413 431.487 40.3293C431.679 40.5066 431.862 40.6946 432.03 40.8829C432.227 41.0599 432.409 41.2483 432.577 41.4362C432.769 41.6132 432.957 41.8016 433.125 41.9896C433.317 42.1669 433.499 42.3549 433.672 42.5432C433.864 42.7202 434.047 42.9085 434.22 43.0965C434.412 43.2739 434.599 43.4618 434.767 43.6502C434.955 43.8272 435.147 44.0152 435.315 44.2035C435.507 44.3805 435.689 44.5688 435.862 44.7568C436.054 44.9341 436.237 45.1221 436.405 45.3104C436.602 45.4874 436.785 45.6757 436.952 45.8638C437.145 46.0408 437.332 46.2291 437.5 46.4174C437.692 46.5944 437.875 46.7824 438.047 46.9707C438.24 47.1475 438.422 47.336 438.595 47.5239C438.787 47.7014 438.975 47.8893 439.142 48.0777C439.33 48.2548 439.522 48.4432 439.69 48.6311C439.882 48.8081 440.065 48.9965 440.237 49.1845C440.43 49.3615 440.612 49.5494 440.78 49.7378C440.972 49.9149 441.16 50.1033 441.327 50.2912C441.52 50.4683 441.707 50.6567 441.875 50.8451C442.067 51.0221 442.25 51.21 442.422 51.3984C442.615 51.5755 442.797 51.7634 442.97 51.9518C443.157 52.1288 443.35 52.3168 443.517 52.5052C443.705 52.6822 443.897 52.8706 444.065 53.0585C444.257 53.2356 444.44 53.424 444.612 53.6119C444.805 53.789 444.987 53.9774 445.155 54.1653C445.347 54.3423 445.535 54.5307 445.703 54.7186C445.895 54.8962 446.082 55.0841 446.25 55.2725C446.442 55.4495 446.625 55.6375 446.798 55.8259C446.99 56.0029 447.172 56.1913 447.345 56.3792C450.605 59.4454 450.985 64.0332 450.985 67.2266L451 67.238ZM226.59 81.9762C226.59 101.457 238.502 110.755 253.783 109.399C261.241 108.741 267.979 105.708 272.675 100.422C273.637 105.21 276.882 106.748 283.62 106.15C289.278 105.652 301.066 100.588 301.066 93.4046C301.066 88.047 294.452 94.8432 293.49 83.3596V64.4874C293.49 50.3632 294.452 49.1845 294.812 46.838C295.414 43.1298 293.367 41.7297 290.358 41.9952C288.917 42.1227 287.231 42.6374 285.549 43.5171C284.345 44.1094 280.976 45.9912 277.967 46.2567C273.153 46.6829 268.339 42.9694 257.27 43.949C239.587 45.5151 226.59 57.2591 226.59 81.9762ZM154.748 111.347C154.748 115.608 158.477 117.347 172.189 116.135C185.907 114.922 189.759 112.51 189.759 108.126C189.759 102.16 182.78 107.285 182.78 92.0651V86.7079C188.797 95.552 198.302 108.713 201.306 112.83C218.392 136.645 234.275 139.501 251.721 137.957C269.528 136.379 285.889 128.476 285.889 118.127C285.889 111.552 282.16 107.866 276.266 108.386C268.808 109.045 266.519 114.485 264.235 119.92C261.468 126.13 259.179 130.839 251.84 131.487C242.576 132.306 227.537 110.263 218.151 97.8207L198.904 72.2518C197.34 70.1986 198.179 68.9089 199.866 67.055C201.548 65.2011 202.15 64.1718 203.476 64.0554C208.044 63.6514 205.04 74.8756 212.256 74.2335C222.363 73.3364 226.817 61.9854 226.817 57.2374C226.817 50.0535 222.605 46.2844 215.625 46.9042C202.993 48.022 190.839 62.8603 182.78 78.1796V25.4639C182.78 17.6714 179.771 15.0149 172.554 15.6569C161.604 16.6254 154.023 23.9918 154.023 27.4009C154.023 33.8542 160.884 27.0357 161.723 38.5306V95.8785C161.846 108.774 154.748 105.509 154.748 111.353V111.347ZM38.1335 127.884C56.5416 126.257 75.5516 115.803 75.5516 99.1217C75.5516 69.413 29.5903 76.8898 29.5903 57.774C29.5903 52.2951 34.6412 48.8027 39.9388 48.3376C45.5914 47.8395 51.6091 50.8337 51.6091 58.8699C51.6091 65.6878 56.0582 68.7042 60.5123 68.3117C65.3215 67.885 70.1356 63.6845 70.1356 56.1361C70.1356 50.7785 69.1738 39.2945 62.6777 39.8701C59.5505 40.1466 57.9819 43.0855 54.8547 43.3624C51.1257 43.6944 47.3967 39.7593 36.4465 40.7279C22.1274 41.9952 9.49528 50.5403 9.49528 66.0035C9.49528 94.9818 53.5328 88.6506 53.5328 106.549C53.5328 113.245 47.5151 117.551 41.379 118.094C34.8829 118.669 28.1451 115.005 28.1451 105.387C28.1451 95.7675 23.8144 92.9839 18.8819 93.4213C12.2624 94.0078 4.44437 101.031 4.44437 107.363C4.44437 123.191 21.0472 129.389 38.1335 127.879V127.884ZM75.5516 203.468C75.5516 173.759 29.5903 181.236 29.5903 162.12C29.5903 156.641 34.6412 153.149 39.9388 152.679C45.5914 152.18 51.6091 155.175 51.6091 163.21C51.6091 170.029 56.0582 173.045 60.5123 172.652C65.3215 172.226 70.1356 168.025 70.1356 160.477C70.1356 155.119 69.1738 143.635 62.6777 144.21C59.5505 144.488 57.9819 147.426 54.8547 147.703C51.1257 148.035 47.3967 144.1 36.4465 145.069C22.1274 146.336 9.49528 154.881 9.49528 170.344C9.49528 199.323 53.5328 192.991 53.5328 210.884C53.5328 217.58 47.5151 221.887 41.379 222.429C34.8829 223.004 28.1451 219.341 28.1451 209.722C28.1451 200.103 23.8144 197.319 18.8819 197.756C12.2624 198.343 4.44437 205.366 4.44437 211.698C4.44437 227.526 21.0472 233.725 38.1335 232.214C56.5416 230.587 75.5516 220.132 75.5516 203.451V203.468ZM92.2531 123.213C105.97 122.001 109.699 119.599 109.699 115.216C109.699 109.25 102.72 114.374 102.72 99.1548V85.8833C104.767 78.2733 111.741 72.6671 117.157 72.1857C120.768 71.8647 123.535 73.9346 123.535 79.1699V97.3117C123.535 112.531 116.556 108.646 116.556 114.613C116.556 118.996 120.285 120.734 134.002 119.522C147.719 118.31 151.567 115.896 151.567 112.366C151.567 105.791 144.592 110.428 144.592 97.035V74.632C144.592 60.386 138.693 54.0878 127.022 55.1231C116.797 56.0305 108.856 61.9691 102.72 71.2782V16.4538C102.72 8.66135 100.554 4.47183 93.935 5.05291C85.2735 5.8222 79.8577 13.7254 71.5562 14.4615C62.293 15.2806 57.242 11.3456 49.3007 12.0484C31.8543 13.5925 31.7311 34.6677 49.9025 33.057C62.0513 31.9836 70.3527 26.6206 76.9721 21.2854C78.0572 20.4608 78.8958 20.018 79.7393 19.9461C80.9428 19.8409 81.6629 20.7486 81.6629 22.8184V102.968C81.6629 115.874 74.8067 112.587 74.8067 118.31C74.8067 122.693 78.5357 124.431 92.2531 123.218V123.213ZM137.928 203.91C137.45 203.955 136.848 204.127 136.246 204.547C131.314 207.906 126.258 209.816 121.567 210.231C110.138 211.244 101.112 203.517 101.112 187.567C101.112 176.609 105.443 167.339 113.744 166.603C120.965 165.967 119.638 172.779 119.638 178.624C119.638 183.25 120.482 187.197 126.86 186.632C132.877 186.101 138.653 182.055 138.653 174.75C138.653 164.765 127.945 158.041 112.906 159.375C93.0521 161.135 79.4532 175.729 79.4532 195.454C79.4532 217.127 95.9376 226.38 112.304 224.936C123.131 223.978 133.957 218.272 139.852 208.371C141.297 206.052 140.094 203.723 137.928 203.916V203.91ZM201.765 198.869C201.158 198.924 200.561 199.096 199.96 199.516C195.505 202.588 190.331 204.751 184.555 205.261C174.449 206.158 170.118 201.547 170.118 196.434C170.118 182.675 202.243 193.102 202.243 171.429C202.243 160.227 193.582 152.839 177.457 154.261C156.765 156.093 143.166 170.693 143.166 190.418C143.166 212.091 159.651 221.344 176.012 219.899C186.844 218.942 197.671 213.236 203.565 203.335C205.01 201.016 203.807 198.686 201.765 198.869ZM321.423 223.89C321.423 218.898 317.936 214.946 311.918 215.477C305.062 216.086 301.451 220.785 298.561 224.576C293.51 230.991 290.984 232.916 287.374 233.238C276.665 234.184 278.347 219.18 278.347 199.699V166.52C278.347 152.275 271.609 146.175 259.939 147.205C249.714 148.113 241.772 153.929 235.76 163.227C235.76 153.851 235.158 149.402 224.449 150.348C214.58 151.223 207.003 158.589 207.003 161.998C207.003 168.452 213.741 161.644 214.579 173.261V193.107C214.579 208.327 207.723 204.309 207.723 210.275C207.723 214.658 211.452 216.396 225.17 215.184C238.887 213.972 242.616 211.57 242.616 207.309C242.616 201.708 235.76 205.97 235.76 193.794V177.722C237.802 170.233 244.781 164.627 250.074 164.157C253.685 163.836 256.452 165.906 256.452 171.141V201.641C256.452 236.708 281.238 243.282 296.518 241.927C314.206 240.36 321.423 230.957 321.423 223.895V223.89ZM342.144 186.444C341.542 186.499 340.941 186.671 340.339 187.091C335.89 190.163 330.711 192.327 324.94 192.836C314.833 193.733 310.502 189.122 310.502 184.009C310.502 170.25 342.623 180.677 342.623 159.004C342.623 147.802 333.961 140.414 317.842 141.836C297.145 143.668 283.551 158.268 283.551 177.993C283.551 199.666 300.035 208.919 316.397 207.475C327.223 206.518 338.055 200.811 343.95 190.91C345.395 188.591 344.191 186.261 342.144 186.444ZM355.748 29.3934C366.817 28.4137 370.422 23.8312 370.422 17.4998C370.422 12.0208 367.66 8.1245 360.439 8.76655C347.925 9.87343 336.013 23.1062 331.199 42.4048C330.602 38.9292 328.437 36.6823 322.538 37.208C312.673 38.0824 305.091 45.4489 305.091 48.858C305.091 55.4328 311.829 48.5034 312.673 60.1206V82.1587C312.673 94.8215 305.816 91.6557 305.816 97.3783C305.816 101.64 309.545 103.378 323.263 102.166C336.975 100.953 340.827 98.5407 340.827 94.1572C340.827 88.1915 333.848 93.4376 333.848 78.218V59.589C333.848 39.2556 345.518 30.3064 355.748 29.4044V29.3934ZM402.405 180.987C402.405 158.462 370.521 163.963 370.521 149.474C370.521 145.091 373.412 142.766 376.297 142.512C379.789 142.202 383.395 144.681 382.675 149.861C381.713 155.789 382.798 159.591 388.086 159.121C393.142 158.672 399.519 154.698 399.519 148.123C399.519 139.357 388.327 135.477 376.899 136.49C364.627 137.575 351.995 144.172 351.995 156.591C351.995 177.899 381.831 173.432 381.831 188.287C381.831 193.035 378.822 195.98 375.577 196.267C371.725 196.611 367.754 193.429 367.754 185.636C367.754 177.843 365.347 175.375 361.381 175.729C356.567 176.155 348.744 180.744 348.744 187.197C348.744 199.128 361.258 203.866 374.132 202.726C388.086 201.492 402.405 193.528 402.405 180.987ZM419.555 39.571C419.555 31.7787 416.546 29.244 408.25 29.98C402.592 30.4781 390.078 35.7304 390.078 42.9138C390.078 48.1497 396.816 41.3421 397.66 52.8371V67.3262C395.736 74.9249 389.117 80.5035 383.942 80.9577C380.574 81.2561 377.806 79.1867 377.806 73.9509V43.2682C377.806 35.4755 374.798 32.9409 366.496 33.6768C360.843 34.1753 348.33 39.4273 348.33 45.3933C348.33 51.8462 354.949 45.0503 355.911 56.5341V78.694C355.911 92.8177 362.53 98.9279 374.201 97.8932C383.706 97.0518 391.524 91.9768 397.541 84.018V97.0464C397.541 107.517 396.698 123.783 385.629 124.768C380.815 125.194 378.048 122.272 374.921 113.173C372.992 107.257 371.069 101.706 365.416 102.204C358.436 102.824 351.817 111.928 352.419 119.184C353.144 126.18 360.725 133.059 384.303 130.972C407.525 128.919 419.555 117.989 419.555 95.0982V39.5657V39.571Z" fill="#FFE9EE"/>
</svg>
