<svg width="24" height="25" viewBox="0 0 24 25" fill="none" xmlns="http://www.w3.org/2000/svg">
<mask id="mask0_12_47" style="mask-type:alpha" maskUnits="userSpaceOnUse" x="0" y="0" width="24" height="25">
<rect y="0.5" width="24" height="24" fill="#D9D9D9"/>
</mask>
<g mask="url(#mask0_12_47)">
<path d="M12 22.5C11.45 22.5 10.9793 22.3043 10.588 21.913C10.196 21.521 10 21.05 10 20.5V12.5C10 11.95 10.196 11.479 10.588 11.087C10.9793 10.6957 11.45 10.5 12 10.5H20C20.55 10.5 21.021 10.6957 21.413 11.087C21.8043 11.479 22 11.95 22 12.5V20.5C22 21.05 21.8043 21.521 21.413 21.913C21.021 22.3043 20.55 22.5 20 22.5H12ZM12 20.5H20V12.5H12V20.5ZM6 18.5V8.5C6 7.95 6.196 7.47933 6.588 7.088C6.97933 6.696 7.45 6.5 8 6.5H18V8.5H8V18.5H6ZM2 14.5V4.5C2 3.95 2.196 3.479 2.588 3.087C2.97933 2.69567 3.45 2.5 4 2.5H14V4.5H4V14.5H2Z" fill="white"/>
</g>
</svg>
