<svg width="25" height="25" viewBox="0 0 25 25" fill="none" xmlns="http://www.w3.org/2000/svg">
<mask id="mask0_9_29" style="mask-type:alpha" maskUnits="userSpaceOnUse" x="0" y="0" width="25" height="25">
<rect x="0.628723" y="0.341317" width="24" height="24" fill="#D9D9D9"/>
</mask>
<g mask="url(#mask0_9_29)">
<path d="M16.6287 13.8413C17.0621 13.8413 17.4204 13.6997 17.7037 13.4163C17.9871 13.133 18.1287 12.7747 18.1287 12.3413C18.1287 11.908 17.9871 11.5497 17.7037 11.2663C17.4204 10.983 17.0621 10.8413 16.6287 10.8413C16.1954 10.8413 15.8371 10.983 15.5537 11.2663C15.2704 11.5497 15.1287 11.908 15.1287 12.3413C15.1287 12.7747 15.2704 13.133 15.5537 13.4163C15.8371 13.6997 16.1954 13.8413 16.6287 13.8413ZM5.62872 21.3413C5.07872 21.3413 4.60772 21.1457 4.21572 20.7543C3.82439 20.3623 3.62872 19.8913 3.62872 19.3413V5.34132C3.62872 4.79132 3.82439 4.32032 4.21572 3.92832C4.60772 3.53698 5.07872 3.34132 5.62872 3.34132H19.6287C20.1787 3.34132 20.6497 3.53698 21.0417 3.92832C21.4331 4.32032 21.6287 4.79132 21.6287 5.34132V7.84132H19.6287V5.34132H5.62872V19.3413H19.6287V16.8413H21.6287V19.3413C21.6287 19.8913 21.4331 20.3623 21.0417 20.7543C20.6497 21.1457 20.1787 21.3413 19.6287 21.3413H5.62872ZM13.6287 17.3413C13.0787 17.3413 12.6081 17.1457 12.2167 16.7543C11.8247 16.3623 11.6287 15.8913 11.6287 15.3413V9.34132C11.6287 8.79132 11.8247 8.32032 12.2167 7.92832C12.6081 7.53698 13.0787 7.34132 13.6287 7.34132H20.6287C21.1787 7.34132 21.6497 7.53698 22.0417 7.92832C22.4331 8.32032 22.6287 8.79132 22.6287 9.34132V15.3413C22.6287 15.8913 22.4331 16.3623 22.0417 16.7543C21.6497 17.1457 21.1787 17.3413 20.6287 17.3413H13.6287ZM20.6287 15.3413V9.34132H13.6287V15.3413H20.6287Z" fill="white"/>
</g>
</svg>
